<?xml version="1.0" standalone="no"?>
<!DOCTYPE svg PUBLIC "-//W3C//DTD SVG 1.1//EN" "http://www.w3.org/Graphics/SVG/1.1/DTD/svg11.dtd">
<svg version="1.1" width="1200" height="534" onload="init(evt)" viewBox="0 0 1200 534" xmlns="http://www.w3.org/2000/svg" xmlns:xlink="http://www.w3.org/1999/xlink">
<!-- Flame graph stack visualization. See https://github.com/brendangregg/FlameGraph for latest version, and http://www.brendangregg.com/flamegraphs.html for examples. -->
<!-- NOTES:  -->
<defs>
	<linearGradient id="background" y1="0" y2="1" x1="0" x2="0" >
		<stop stop-color="#eeeeee" offset="5%" />
		<stop stop-color="#eeeeb0" offset="95%" />
	</linearGradient>
</defs>
<style type="text/css">
	text { font-family:Verdana; font-size:12px; fill:rgb(0,0,0); }
	#search, #ignorecase { opacity:0.1; cursor:pointer; }
	#search:hover, #search.show, #ignorecase:hover, #ignorecase.show { opacity:1; }
	#subtitle { text-anchor:middle; font-color:rgb(160,160,160); }
	#title { text-anchor:middle; font-size:17px}
	#unzoom { cursor:pointer; }
	#frames > *:hover { stroke:black; stroke-width:0.5; cursor:pointer; }
	.hide { display:none; }
	.parent { opacity:0.5; }
</style>
<script type="text/ecmascript">
<![CDATA[
	"use strict";
	var details, searchbtn, unzoombtn, matchedtxt, svg, searching, currentSearchTerm, ignorecase, ignorecaseBtn;
	function init(evt) {
		details = document.getElementById("details").firstChild;
		searchbtn = document.getElementById("search");
		ignorecaseBtn = document.getElementById("ignorecase");
		unzoombtn = document.getElementById("unzoom");
		matchedtxt = document.getElementById("matched");
		svg = document.getElementsByTagName("svg")[0];
		searching = 0;
		currentSearchTerm = null;

		// use GET parameters to restore a flamegraphs state.
		var params = get_params();
		if (params.x && params.y)
			zoom(find_group(document.querySelector('[x="' + params.x + '"][y="' + params.y + '"]')));
                if (params.s) search(params.s);
	}

	// event listeners
	window.addEventListener("click", function(e) {
		var target = find_group(e.target);
		if (target) {
			if (target.nodeName == "a") {
				if (e.ctrlKey === false) return;
				e.preventDefault();
			}
			if (target.classList.contains("parent")) unzoom(true);
			zoom(target);
			if (!document.querySelector('.parent')) {
				// we have basically done a clearzoom so clear the url
				var params = get_params();
				if (params.x) delete params.x;
				if (params.y) delete params.y;
				history.replaceState(null, null, parse_params(params));
				unzoombtn.classList.add("hide");
				return;
			}

			// set parameters for zoom state
			var el = target.querySelector("rect");
			if (el && el.attributes && el.attributes.y && el.attributes._orig_x) {
				var params = get_params()
				params.x = el.attributes._orig_x.value;
				params.y = el.attributes.y.value;
				history.replaceState(null, null, parse_params(params));
			}
		}
		else if (e.target.id == "unzoom") clearzoom();
		else if (e.target.id == "search") search_prompt();
		else if (e.target.id == "ignorecase") toggle_ignorecase();
	}, false)

	// mouse-over for info
	// show
	window.addEventListener("mouseover", function(e) {
		var target = find_group(e.target);
		if (target) details.nodeValue = "Function: " + g_to_text(target);
	}, false)

	// clear
	window.addEventListener("mouseout", function(e) {
		var target = find_group(e.target);
		if (target) details.nodeValue = ' ';
	}, false)

	// ctrl-F for search
	// ctrl-I to toggle case-sensitive search
	window.addEventListener("keydown",function (e) {
		if (e.keyCode === 114 || (e.ctrlKey && e.keyCode === 70)) {
			e.preventDefault();
			search_prompt();
		}
		else if (e.ctrlKey && e.keyCode === 73) {
			e.preventDefault();
			toggle_ignorecase();
		}
	}, false)

	// functions
	function get_params() {
		var params = {};
		var paramsarr = window.location.search.substr(1).split('&');
		for (var i = 0; i < paramsarr.length; ++i) {
			var tmp = paramsarr[i].split("=");
			if (!tmp[0] || !tmp[1]) continue;
			params[tmp[0]]  = decodeURIComponent(tmp[1]);
		}
		return params;
	}
	function parse_params(params) {
		var uri = "?";
		for (var key in params) {
			uri += key + '=' + encodeURIComponent(params[key]) + '&';
		}
		if (uri.slice(-1) == "&")
			uri = uri.substring(0, uri.length - 1);
		if (uri == '?')
			uri = window.location.href.split('?')[0];
		return uri;
	}
	function find_child(node, selector) {
		var children = node.querySelectorAll(selector);
		if (children.length) return children[0];
	}
	function find_group(node) {
		var parent = node.parentElement;
		if (!parent) return;
		if (parent.id == "frames") return node;
		return find_group(parent);
	}
	function orig_save(e, attr, val) {
		if (e.attributes["_orig_" + attr] != undefined) return;
		if (e.attributes[attr] == undefined) return;
		if (val == undefined) val = e.attributes[attr].value;
		e.setAttribute("_orig_" + attr, val);
	}
	function orig_load(e, attr) {
		if (e.attributes["_orig_"+attr] == undefined) return;
		e.attributes[attr].value = e.attributes["_orig_" + attr].value;
		e.removeAttribute("_orig_"+attr);
	}
	function g_to_text(e) {
		var text = find_child(e, "title").firstChild.nodeValue;
		return (text)
	}
	function g_to_func(e) {
		var func = g_to_text(e);
		// if there's any manipulation we want to do to the function
		// name before it's searched, do it here before returning.
		return (func);
	}
	function update_text(e) {
		var r = find_child(e, "rect");
		var t = find_child(e, "text");
		var w = parseFloat(r.attributes.width.value) -3;
		var txt = find_child(e, "title").textContent.replace(/\([^(]*\)$/,"");
		t.attributes.x.value = parseFloat(r.attributes.x.value) + 3;

		// Smaller than this size won't fit anything
		if (w < 2 * 12 * 0.59) {
			t.textContent = "";
			return;
		}

		t.textContent = txt;
		var sl = t.getSubStringLength(0, txt.length);
		// check if only whitespace or if we can fit the entire string into width w
		if (/^ *$/.test(txt) || sl < w)
			return;

		// this isn't perfect, but gives a good starting point
		// and avoids calling getSubStringLength too often
		var start = Math.floor((w/sl) * txt.length);
		for (var x = start; x > 0; x = x-2) {
			if (t.getSubStringLength(0, x + 2) <= w) {
				t.textContent = txt.substring(0, x) + "..";
				return;
			}
		}
		t.textContent = "";
	}

	// zoom
	function zoom_reset(e) {
		if (e.attributes != undefined) {
			orig_load(e, "x");
			orig_load(e, "width");
		}
		if (e.childNodes == undefined) return;
		for (var i = 0, c = e.childNodes; i < c.length; i++) {
			zoom_reset(c[i]);
		}
	}
	function zoom_child(e, x, ratio) {
		if (e.attributes != undefined) {
			if (e.attributes.x != undefined) {
				orig_save(e, "x");
				e.attributes.x.value = (parseFloat(e.attributes.x.value) - x - 10) * ratio + 10;
				if (e.tagName == "text")
					e.attributes.x.value = find_child(e.parentNode, "rect[x]").attributes.x.value + 3;
			}
			if (e.attributes.width != undefined) {
				orig_save(e, "width");
				e.attributes.width.value = parseFloat(e.attributes.width.value) * ratio;
			}
		}

		if (e.childNodes == undefined) return;
		for (var i = 0, c = e.childNodes; i < c.length; i++) {
			zoom_child(c[i], x - 10, ratio);
		}
	}
	function zoom_parent(e) {
		if (e.attributes) {
			if (e.attributes.x != undefined) {
				orig_save(e, "x");
				e.attributes.x.value = 10;
			}
			if (e.attributes.width != undefined) {
				orig_save(e, "width");
				e.attributes.width.value = parseInt(svg.width.baseVal.value) - (10 * 2);
			}
		}
		if (e.childNodes == undefined) return;
		for (var i = 0, c = e.childNodes; i < c.length; i++) {
			zoom_parent(c[i]);
		}
	}
	function zoom(node) {
		var attr = find_child(node, "rect").attributes;
		var width = parseFloat(attr.width.value);
		var xmin = parseFloat(attr.x.value);
		var xmax = parseFloat(xmin + width);
		var ymin = parseFloat(attr.y.value);
		var ratio = (svg.width.baseVal.value - 2 * 10) / width;

		// XXX: Workaround for JavaScript float issues (fix me)
		var fudge = 0.0001;

		unzoombtn.classList.remove("hide");

		var el = document.getElementById("frames").children;
		for (var i = 0; i < el.length; i++) {
			var e = el[i];
			var a = find_child(e, "rect").attributes;
			var ex = parseFloat(a.x.value);
			var ew = parseFloat(a.width.value);
			var upstack;
			// Is it an ancestor
			if (0 == 0) {
				upstack = parseFloat(a.y.value) > ymin;
			} else {
				upstack = parseFloat(a.y.value) < ymin;
			}
			if (upstack) {
				// Direct ancestor
				if (ex <= xmin && (ex+ew+fudge) >= xmax) {
					e.classList.add("parent");
					zoom_parent(e);
					update_text(e);
				}
				// not in current path
				else
					e.classList.add("hide");
			}
			// Children maybe
			else {
				// no common path
				if (ex < xmin || ex + fudge >= xmax) {
					e.classList.add("hide");
				}
				else {
					zoom_child(e, xmin, ratio);
					update_text(e);
				}
			}
		}
		search();
	}
	function unzoom(dont_update_text) {
		unzoombtn.classList.add("hide");
		var el = document.getElementById("frames").children;
		for(var i = 0; i < el.length; i++) {
			el[i].classList.remove("parent");
			el[i].classList.remove("hide");
			zoom_reset(el[i]);
			if(!dont_update_text) update_text(el[i]);
		}
		search();
	}
	function clearzoom() {
		unzoom();

		// remove zoom state
		var params = get_params();
		if (params.x) delete params.x;
		if (params.y) delete params.y;
		history.replaceState(null, null, parse_params(params));
	}

	// search
	function toggle_ignorecase() {
		ignorecase = !ignorecase;
		if (ignorecase) {
			ignorecaseBtn.classList.add("show");
		} else {
			ignorecaseBtn.classList.remove("show");
		}
		reset_search();
		search();
	}
	function reset_search() {
		var el = document.querySelectorAll("#frames rect");
		for (var i = 0; i < el.length; i++) {
			orig_load(el[i], "fill")
		}
		var params = get_params();
		delete params.s;
		history.replaceState(null, null, parse_params(params));
	}
	function search_prompt() {
		if (!searching) {
			var term = prompt("Enter a search term (regexp " +
			    "allowed, eg: ^ext4_)"
			    + (ignorecase ? ", ignoring case" : "")
			    + "\nPress Ctrl-i to toggle case sensitivity", "");
			if (term != null) search(term);
		} else {
			reset_search();
			searching = 0;
			currentSearchTerm = null;
			searchbtn.classList.remove("show");
			searchbtn.firstChild.nodeValue = "Search"
			matchedtxt.classList.add("hide");
			matchedtxt.firstChild.nodeValue = ""
		}
	}
	function search(term) {
		if (term) currentSearchTerm = term;
		if (currentSearchTerm === null) return;

		var re = new RegExp(currentSearchTerm, ignorecase ? 'i' : '');
		var el = document.getElementById("frames").children;
		var matches = new Object();
		var maxwidth = 0;
		for (var i = 0; i < el.length; i++) {
			var e = el[i];
			var func = g_to_func(e);
			var rect = find_child(e, "rect");
			if (func == null || rect == null)
				continue;

			// Save max width. Only works as we have a root frame
			var w = parseFloat(rect.attributes.width.value);
			if (w > maxwidth)
				maxwidth = w;

			if (func.match(re)) {
				// highlight
				var x = parseFloat(rect.attributes.x.value);
				orig_save(rect, "fill");
				rect.attributes.fill.value = "rgb(230,0,230)";

				// remember matches
				if (matches[x] == undefined) {
					matches[x] = w;
				} else {
					if (w > matches[x]) {
						// overwrite with parent
						matches[x] = w;
					}
				}
				searching = 1;
			}
		}
		if (!searching)
			return;
		var params = get_params();
		params.s = currentSearchTerm;
		history.replaceState(null, null, parse_params(params));

		searchbtn.classList.add("show");
		searchbtn.firstChild.nodeValue = "Reset Search";

		// calculate percent matched, excluding vertical overlap
		var count = 0;
		var lastx = -1;
		var lastw = 0;
		var keys = Array();
		for (k in matches) {
			if (matches.hasOwnProperty(k))
				keys.push(k);
		}
		// sort the matched frames by their x location
		// ascending, then width descending
		keys.sort(function(a, b){
			return a - b;
		});
		// Step through frames saving only the biggest bottom-up frames
		// thanks to the sort order. This relies on the tree property
		// where children are always smaller than their parents.
		var fudge = 0.0001;	// JavaScript floating point
		for (var k in keys) {
			var x = parseFloat(keys[k]);
			var w = matches[keys[k]];
			if (x >= lastx + lastw - fudge) {
				count += w;
				lastx = x;
				lastw = w;
			}
		}
		// display matched percent
		matchedtxt.classList.remove("hide");
		var pct = 100 * count / maxwidth;
		if (pct != 100) pct = pct.toFixed(1)
		matchedtxt.firstChild.nodeValue = "Matched: " + pct + "%";
	}
]]>
</script>
<rect x="0.0" y="0" width="1200.0" height="534.0" fill="url(#background)"  />
<text id="title" x="600.00" y="24" >Flame Graph</text>
<text id="details" x="10.00" y="517" > </text>
<text id="unzoom" x="10.00" y="24" class="hide">Reset Zoom</text>
<text id="search" x="1090.00" y="24" >Search</text>
<text id="ignorecase" x="1174.00" y="24" >ic</text>
<text id="matched" x="1090.00" y="517" > </text>
<g id="frames">
<g >
<title>new_sync_read (64,760,651 samples, 0.16%)</title><rect x="900.9" y="229" width="1.9" height="15.0" fill="rgb(218,61,14)" rx="2" ry="2" />
<text  x="903.86" y="239.5" ></text>
</g>
<g >
<title>filemap_read (64,760,651 samples, 0.16%)</title><rect x="900.9" y="213" width="1.9" height="15.0" fill="rgb(246,192,46)" rx="2" ry="2" />
<text  x="903.86" y="223.5" ></text>
</g>
<g >
<title>__GI___libc_read (10,030,355 samples, 0.02%)</title><rect x="1186.7" y="309" width="0.3" height="15.0" fill="rgb(241,166,39)" rx="2" ry="2" />
<text  x="1189.67" y="319.5" ></text>
</g>
<g >
<title>do_user_addr_fault (6,218,878 samples, 0.02%)</title><rect x="886.2" y="277" width="0.2" height="15.0" fill="rgb(228,108,25)" rx="2" ry="2" />
<text  x="889.19" y="287.5" ></text>
</g>
<g >
<title>exc_page_fault (6,218,878 samples, 0.02%)</title><rect x="886.2" y="293" width="0.2" height="15.0" fill="rgb(212,35,8)" rx="2" ry="2" />
<text  x="889.19" y="303.5" ></text>
</g>
<g >
<title>isalpha@plt (8,852,492 samples, 0.02%)</title><rect x="1186.4" y="357" width="0.3" height="15.0" fill="rgb(212,33,7)" rx="2" ry="2" />
<text  x="1189.41" y="367.5" ></text>
</g>
<g >
<title>exc_page_fault (9,460,943 samples, 0.02%)</title><rect x="886.7" y="341" width="0.3" height="15.0" fill="rgb(212,35,8)" rx="2" ry="2" />
<text  x="889.73" y="351.5" ></text>
</g>
<g >
<title>__GI__IO_file_xsgetn (10,030,355 samples, 0.02%)</title><rect x="1186.7" y="325" width="0.3" height="15.0" fill="rgb(236,143,34)" rx="2" ry="2" />
<text  x="1189.67" y="335.5" ></text>
</g>
<g >
<title>__GI___libc_free (6,561,351 samples, 0.02%)</title><rect x="1188.4" y="373" width="0.2" height="15.0" fill="rgb(252,218,52)" rx="2" ry="2" />
<text  x="1191.38" y="383.5" ></text>
</g>
<g >
<title>isalpha@plt (60,221,579 samples, 0.15%)</title><rect x="899.1" y="357" width="1.7" height="15.0" fill="rgb(212,33,7)" rx="2" ry="2" />
<text  x="902.09" y="367.5" ></text>
</g>
<g >
<title>__strncpy_avx2 (3,331,829,025 samples, 8.23%)</title><rect x="606.0" y="341" width="97.1" height="15.0" fill="rgb(251,213,51)" rx="2" ry="2" />
<text  x="609.03" y="351.5" >__strncpy_a..</text>
</g>
<g >
<title>ksys_read (64,760,651 samples, 0.16%)</title><rect x="900.9" y="261" width="1.9" height="15.0" fill="rgb(229,113,27)" rx="2" ry="2" />
<text  x="903.86" y="271.5" ></text>
</g>
<g >
<title>__do_sys_mremap (6,302,081 samples, 0.02%)</title><rect x="886.4" y="277" width="0.2" height="15.0" fill="rgb(231,119,28)" rx="2" ry="2" />
<text  x="889.37" y="287.5" ></text>
</g>
<g >
<title>do_syscall_64 (64,760,651 samples, 0.16%)</title><rect x="900.9" y="277" width="1.9" height="15.0" fill="rgb(209,20,4)" rx="2" ry="2" />
<text  x="903.86" y="287.5" ></text>
</g>
<g >
<title>__memcpy_avx_unaligned_erms (6,218,878 samples, 0.02%)</title><rect x="886.2" y="325" width="0.2" height="15.0" fill="rgb(246,190,45)" rx="2" ry="2" />
<text  x="889.19" y="335.5" ></text>
</g>
<g >
<title>do_syscall_64 (6,302,081 samples, 0.02%)</title><rect x="886.4" y="293" width="0.2" height="15.0" fill="rgb(209,20,4)" rx="2" ry="2" />
<text  x="889.37" y="303.5" ></text>
</g>
<g >
<title>__do_munmap (6,565,309 samples, 0.02%)</title><rect x="22.6" y="277" width="0.2" height="15.0" fill="rgb(234,136,32)" rx="2" ry="2" />
<text  x="25.62" y="287.5" ></text>
</g>
<g >
<title>copy_page_to_iter (39,263,496 samples, 0.10%)</title><rect x="900.9" y="197" width="1.1" height="15.0" fill="rgb(209,22,5)" rx="2" ry="2" />
<text  x="903.89" y="207.5" ></text>
</g>
<g >
<title>strcmp_optimized (48,234,611 samples, 0.12%)</title><rect x="1182.5" y="357" width="1.5" height="15.0" fill="rgb(216,54,13)" rx="2" ry="2" />
<text  x="1185.55" y="367.5" ></text>
</g>
<g >
<title>__GI__IO_fread (10,030,355 samples, 0.02%)</title><rect x="1186.7" y="341" width="0.3" height="15.0" fill="rgb(212,34,8)" rx="2" ry="2" />
<text  x="1189.67" y="351.5" ></text>
</g>
<g >
<title>__sysvec_hyperv_stimer0 (9,761,036 samples, 0.02%)</title><rect x="605.7" y="325" width="0.3" height="15.0" fill="rgb(235,139,33)" rx="2" ry="2" />
<text  x="608.75" y="335.5" ></text>
</g>
<g >
<title>_int_free (6,561,351 samples, 0.02%)</title><rect x="1188.4" y="357" width="0.2" height="15.0" fill="rgb(247,196,46)" rx="2" ry="2" />
<text  x="1191.38" y="367.5" ></text>
</g>
<g >
<title>strlen@plt (19,544,401 samples, 0.05%)</title><rect x="875.4" y="357" width="0.5" height="15.0" fill="rgb(240,162,38)" rx="2" ry="2" />
<text  x="878.37" y="367.5" ></text>
</g>
<g >
<title>__strlen_avx2 (466,462,240 samples, 1.15%)</title><rect x="592.1" y="357" width="13.6" height="15.0" fill="rgb(246,188,45)" rx="2" ry="2" />
<text  x="595.06" y="367.5" ></text>
</g>
<g >
<title>exc_page_fault (12,582,581 samples, 0.03%)</title><rect x="901.6" y="149" width="0.4" height="15.0" fill="rgb(212,35,8)" rx="2" ry="2" />
<text  x="904.65" y="159.5" ></text>
</g>
<g >
<title>entry_SYSCALL_64_after_hwframe (6,302,081 samples, 0.02%)</title><rect x="886.4" y="309" width="0.2" height="15.0" fill="rgb(218,63,15)" rx="2" ry="2" />
<text  x="889.37" y="319.5" ></text>
</g>
<g >
<title>filemap_read (10,030,355 samples, 0.02%)</title><rect x="1186.7" y="213" width="0.3" height="15.0" fill="rgb(246,192,46)" rx="2" ry="2" />
<text  x="1189.67" y="223.5" ></text>
</g>
<g >
<title>handle_mm_fault (6,218,878 samples, 0.02%)</title><rect x="886.2" y="261" width="0.2" height="15.0" fill="rgb(234,135,32)" rx="2" ry="2" />
<text  x="889.19" y="271.5" ></text>
</g>
<g >
<title>findWordsInTable (39,972,275,719 samples, 98.73%)</title><rect x="10.0" y="389" width="1165.1" height="15.0" fill="rgb(230,118,28)" rx="2" ry="2" />
<text  x="13.00" y="399.5" >findWordsInTable</text>
</g>
<g >
<title>_mm_cmpeq_epi8 (22,512,316 samples, 0.06%)</title><rect x="1182.5" y="341" width="0.7" height="15.0" fill="rgb(248,200,48)" rx="2" ry="2" />
<text  x="1185.55" y="351.5" ></text>
</g>
<g >
<title>_mm_cmpeq_epi8 (3,006,985,310 samples, 7.43%)</title><rect x="706.8" y="341" width="87.6" height="15.0" fill="rgb(248,200,48)" rx="2" ry="2" />
<text  x="709.76" y="351.5" >_mm_cmpeq_..</text>
</g>
<g >
<title>__do_munmap (6,302,081 samples, 0.02%)</title><rect x="886.4" y="245" width="0.2" height="15.0" fill="rgb(234,136,32)" rx="2" ry="2" />
<text  x="889.37" y="255.5" ></text>
</g>
<g >
<title>handle_mm_fault (9,460,943 samples, 0.02%)</title><rect x="886.7" y="309" width="0.3" height="15.0" fill="rgb(234,135,32)" rx="2" ry="2" />
<text  x="889.73" y="319.5" ></text>
</g>
<g >
<title>findWordsInTable (473,783,564 samples, 1.17%)</title><rect x="887.0" y="373" width="13.8" height="15.0" fill="rgb(230,118,28)" rx="2" ry="2" />
<text  x="890.03" y="383.5" ></text>
</g>
<g >
<title>vfs_read (64,760,651 samples, 0.16%)</title><rect x="900.9" y="245" width="1.9" height="15.0" fill="rgb(224,88,21)" rx="2" ry="2" />
<text  x="903.86" y="255.5" ></text>
</g>
<g >
<title>__strncpy_avx2 (34,994,696 samples, 0.09%)</title><rect x="1181.4" y="341" width="1.1" height="15.0" fill="rgb(251,213,51)" rx="2" ry="2" />
<text  x="1184.43" y="351.5" ></text>
</g>
<g >
<title>strcmp_optimized (5,785,005,308 samples, 14.29%)</title><rect x="706.8" y="357" width="168.6" height="15.0" fill="rgb(216,54,13)" rx="2" ry="2" />
<text  x="709.76" y="367.5" >strcmp_optimized</text>
</g>
<g >
<title>clear_page_erms (11,032,938 samples, 0.03%)</title><rect x="901.7" y="37" width="0.3" height="15.0" fill="rgb(229,113,27)" rx="2" ry="2" />
<text  x="904.67" y="47.5" ></text>
</g>
<g >
<title>do_user_addr_fault (12,582,581 samples, 0.03%)</title><rect x="901.6" y="133" width="0.4" height="15.0" fill="rgb(228,108,25)" rx="2" ry="2" />
<text  x="904.65" y="143.5" ></text>
</g>
<g >
<title>unmap_region (6,302,081 samples, 0.02%)</title><rect x="886.4" y="229" width="0.2" height="15.0" fill="rgb(219,64,15)" rx="2" ry="2" />
<text  x="889.37" y="239.5" ></text>
</g>
<g >
<title>__handle_mm_fault (9,460,943 samples, 0.02%)</title><rect x="886.7" y="293" width="0.3" height="15.0" fill="rgb(207,9,2)" rx="2" ry="2" />
<text  x="889.73" y="303.5" ></text>
</g>
<g >
<title>do_syscall_64 (6,565,309 samples, 0.02%)</title><rect x="22.6" y="325" width="0.2" height="15.0" fill="rgb(209,20,4)" rx="2" ry="2" />
<text  x="25.62" y="335.5" ></text>
</g>
<g >
<title>__GI___libc_free (6,565,309 samples, 0.02%)</title><rect x="22.6" y="373" width="0.2" height="15.0" fill="rgb(252,218,52)" rx="2" ry="2" />
<text  x="25.62" y="383.5" ></text>
</g>
<g >
<title>__strlen_avx2 (1,479,004,975 samples, 3.65%)</title><rect x="1125.7" y="341" width="43.1" height="15.0" fill="rgb(246,188,45)" rx="2" ry="2" />
<text  x="1128.69" y="351.5" >__st..</text>
</g>
<g >
<title>isalpha (413,561,985 samples, 1.02%)</title><rect x="887.0" y="357" width="12.1" height="15.0" fill="rgb(246,189,45)" rx="2" ry="2" />
<text  x="890.03" y="367.5" ></text>
</g>
<g >
<title>lru_cache_add (5,439,349 samples, 0.01%)</title><rect x="902.3" y="149" width="0.2" height="15.0" fill="rgb(247,196,47)" rx="2" ry="2" />
<text  x="905.34" y="159.5" ></text>
</g>
<g >
<title>_int_realloc (6,218,878 samples, 0.02%)</title><rect x="886.2" y="341" width="0.2" height="15.0" fill="rgb(230,117,28)" rx="2" ry="2" />
<text  x="889.19" y="351.5" ></text>
</g>
<g >
<title>ksys_read (10,030,355 samples, 0.02%)</title><rect x="1186.7" y="261" width="0.3" height="15.0" fill="rgb(229,113,27)" rx="2" ry="2" />
<text  x="1189.67" y="271.5" ></text>
</g>
<g >
<title>vfs_read (10,030,355 samples, 0.02%)</title><rect x="1186.7" y="245" width="0.3" height="15.0" fill="rgb(224,88,21)" rx="2" ry="2" />
<text  x="1189.67" y="255.5" ></text>
</g>
<g >
<title>main (40,435,638,891 samples, 99.88%)</title><rect x="10.0" y="405" width="1178.6" height="15.0" fill="rgb(243,179,42)" rx="2" ry="2" />
<text  x="13.00" y="415.5" >main</text>
</g>
<g >
<title>__GI__IO_fread (64,760,651 samples, 0.16%)</title><rect x="900.9" y="341" width="1.9" height="15.0" fill="rgb(212,34,8)" rx="2" ry="2" />
<text  x="903.86" y="351.5" ></text>
</g>
<g >
<title>loadFileToBuffer (10,030,356 samples, 0.02%)</title><rect x="1186.7" y="373" width="0.3" height="15.0" fill="rgb(247,193,46)" rx="2" ry="2" />
<text  x="1189.67" y="383.5" ></text>
</g>
<g >
<title>isalpha (46,927,665 samples, 0.12%)</title><rect x="1185.0" y="357" width="1.4" height="15.0" fill="rgb(246,189,45)" rx="2" ry="2" />
<text  x="1188.04" y="367.5" ></text>
</g>
<g >
<title>unmap_region (6,565,309 samples, 0.02%)</title><rect x="22.6" y="261" width="0.2" height="15.0" fill="rgb(219,64,15)" rx="2" ry="2" />
<text  x="25.62" y="271.5" ></text>
</g>
<g >
<title>bucketLookup (38,259,554 samples, 0.09%)</title><rect x="1181.4" y="357" width="1.1" height="15.0" fill="rgb(246,191,45)" rx="2" ry="2" />
<text  x="1184.43" y="367.5" ></text>
</g>
<g >
<title>tableLookup (1,580,460,982 samples, 3.90%)</title><rect x="1079.6" y="341" width="46.1" height="15.0" fill="rgb(208,17,4)" rx="2" ry="2" />
<text  x="1082.63" y="351.5" >tabl..</text>
</g>
<g >
<title>tableLookup (1,693,850,593 samples, 4.18%)</title><rect x="1125.7" y="357" width="49.4" height="15.0" fill="rgb(208,17,4)" rx="2" ry="2" />
<text  x="1128.69" y="367.5" >tabl..</text>
</g>
<g >
<title>__GI___libc_realloc (12,520,959 samples, 0.03%)</title><rect x="886.2" y="357" width="0.4" height="15.0" fill="rgb(235,139,33)" rx="2" ry="2" />
<text  x="889.19" y="367.5" ></text>
</g>
<g >
<title>divideBufferToStrings (93,037,392 samples, 0.23%)</title><rect x="1184.0" y="373" width="2.7" height="15.0" fill="rgb(232,127,30)" rx="2" ry="2" />
<text  x="1186.96" y="383.5" ></text>
</g>
<g >
<title>bucketLookup (3,455,851,576 samples, 8.54%)</title><rect x="606.0" y="357" width="100.8" height="15.0" fill="rgb(246,191,45)" rx="2" ry="2" />
<text  x="609.03" y="367.5" >bucketLookup</text>
</g>
<g >
<title>new_sync_read (10,030,355 samples, 0.02%)</title><rect x="1186.7" y="229" width="0.3" height="15.0" fill="rgb(218,61,14)" rx="2" ry="2" />
<text  x="1189.67" y="239.5" ></text>
</g>
<g >
<title>asm_exc_page_fault (6,218,878 samples, 0.02%)</title><rect x="886.2" y="309" width="0.2" height="15.0" fill="rgb(225,93,22)" rx="2" ry="2" />
<text  x="889.19" y="319.5" ></text>
</g>
<g >
<title>page_cache_ra_unbounded (21,421,813 samples, 0.05%)</title><rect x="902.0" y="181" width="0.7" height="15.0" fill="rgb(234,134,32)" rx="2" ry="2" />
<text  x="905.04" y="191.5" ></text>
</g>
<g >
<title>unmap_page_range (6,565,309 samples, 0.02%)</title><rect x="22.6" y="229" width="0.2" height="15.0" fill="rgb(206,5,1)" rx="2" ry="2" />
<text  x="25.62" y="239.5" ></text>
</g>
<g >
<title>filemap_get_pages (21,421,813 samples, 0.05%)</title><rect x="902.0" y="197" width="0.7" height="15.0" fill="rgb(216,53,12)" rx="2" ry="2" />
<text  x="905.04" y="207.5" ></text>
</g>
<g >
<title>entry_SYSCALL_64_after_hwframe (10,030,355 samples, 0.02%)</title><rect x="1186.7" y="293" width="0.3" height="15.0" fill="rgb(218,63,15)" rx="2" ry="2" />
<text  x="1189.67" y="303.5" ></text>
</g>
<g >
<title>tableLookup (6,453,708 samples, 0.02%)</title><rect x="1188.2" y="357" width="0.2" height="15.0" fill="rgb(208,17,4)" rx="2" ry="2" />
<text  x="1191.19" y="367.5" ></text>
</g>
<g >
<title>clear_subpage (11,032,938 samples, 0.03%)</title><rect x="901.7" y="53" width="0.3" height="15.0" fill="rgb(247,195,46)" rx="2" ry="2" />
<text  x="904.67" y="63.5" ></text>
</g>
<g >
<title>__GI__IO_file_xsgetn (64,760,651 samples, 0.16%)</title><rect x="900.9" y="325" width="1.9" height="15.0" fill="rgb(236,143,34)" rx="2" ry="2" />
<text  x="903.86" y="335.5" ></text>
</g>
<g >
<title>loadWordsIntoTable (456,801,821 samples, 1.13%)</title><rect x="1175.1" y="389" width="13.3" height="15.0" fill="rgb(220,73,17)" rx="2" ry="2" />
<text  x="1178.06" y="399.5" ></text>
</g>
<g >
<title>__GI___mremap (6,302,081 samples, 0.02%)</title><rect x="886.4" y="325" width="0.2" height="15.0" fill="rgb(217,58,13)" rx="2" ry="2" />
<text  x="889.37" y="335.5" ></text>
</g>
<g >
<title>unmap_vmas (6,565,309 samples, 0.02%)</title><rect x="22.6" y="245" width="0.2" height="15.0" fill="rgb(243,176,42)" rx="2" ry="2" />
<text  x="25.62" y="255.5" ></text>
</g>
<g >
<title>tableInsert (6,529,468 samples, 0.02%)</title><rect x="1187.1" y="373" width="0.1" height="15.0" fill="rgb(241,166,39)" rx="2" ry="2" />
<text  x="1190.06" y="383.5" ></text>
</g>
<g >
<title>copy_page_to_iter (7,646,730 samples, 0.02%)</title><rect x="1186.7" y="197" width="0.2" height="15.0" fill="rgb(209,22,5)" rx="2" ry="2" />
<text  x="1189.67" y="207.5" ></text>
</g>
<g >
<title>copy_user_enhanced_fast_string (37,513,387 samples, 0.09%)</title><rect x="900.9" y="181" width="1.1" height="15.0" fill="rgb(238,155,37)" rx="2" ry="2" />
<text  x="903.94" y="191.5" ></text>
</g>
<g >
<title>add_to_page_cache_lru (11,377,834 samples, 0.03%)</title><rect x="902.2" y="165" width="0.3" height="15.0" fill="rgb(236,142,34)" rx="2" ry="2" />
<text  x="905.17" y="175.5" ></text>
</g>
<g >
<title>entry_SYSCALL_64_after_hwframe (64,760,651 samples, 0.16%)</title><rect x="900.9" y="293" width="1.9" height="15.0" fill="rgb(218,63,15)" rx="2" ry="2" />
<text  x="903.86" y="303.5" ></text>
</g>
<g >
<title>get_page_from_freelist (6,310,898 samples, 0.02%)</title><rect x="886.7" y="261" width="0.2" height="15.0" fill="rgb(252,218,52)" rx="2" ry="2" />
<text  x="889.73" y="271.5" ></text>
</g>
<g >
<title>sysvec_hyperv_stimer0 (9,761,036 samples, 0.02%)</title><rect x="605.7" y="341" width="0.3" height="15.0" fill="rgb(212,35,8)" rx="2" ry="2" />
<text  x="608.75" y="351.5" ></text>
</g>
<g >
<title>__pagevec_lru_add (4,373,157 samples, 0.01%)</title><rect x="902.4" y="133" width="0.1" height="15.0" fill="rgb(228,106,25)" rx="2" ry="2" />
<text  x="905.37" y="143.5" ></text>
</g>
<g >
<title>_mm_movemask_epi8 (25,722,295 samples, 0.06%)</title><rect x="1183.2" y="341" width="0.8" height="15.0" fill="rgb(247,195,46)" rx="2" ry="2" />
<text  x="1186.21" y="351.5" ></text>
</g>
<g >
<title>tableLookup (38,736,955 samples, 0.10%)</title><rect x="1187.2" y="373" width="1.2" height="15.0" fill="rgb(208,17,4)" rx="2" ry="2" />
<text  x="1190.25" y="383.5" ></text>
</g>
<g >
<title>getBucketIndex (3,238,773,955 samples, 8.00%)</title><rect x="1031.3" y="357" width="94.4" height="15.0" fill="rgb(225,96,22)" rx="2" ry="2" />
<text  x="1034.29" y="367.5" >getBucketIn..</text>
</g>
<g >
<title>read_pages (5,589,085 samples, 0.01%)</title><rect x="902.5" y="165" width="0.2" height="15.0" fill="rgb(227,103,24)" rx="2" ry="2" />
<text  x="905.50" y="175.5" ></text>
</g>
<g >
<title>tableLookup (13,127,502 samples, 0.03%)</title><rect x="1189.6" y="437" width="0.4" height="15.0" fill="rgb(208,17,4)" rx="2" ry="2" />
<text  x="1192.62" y="447.5" ></text>
</g>
<g >
<title>move_vma (6,302,081 samples, 0.02%)</title><rect x="886.4" y="261" width="0.2" height="15.0" fill="rgb(220,73,17)" rx="2" ry="2" />
<text  x="889.37" y="271.5" ></text>
</g>
<g >
<title>tableLookup (9,342,757,861 samples, 23.08%)</title><rect x="902.8" y="373" width="272.3" height="15.0" fill="rgb(208,17,4)" rx="2" ry="2" />
<text  x="905.75" y="383.5" >tableLookup</text>
</g>
<g >
<title>strlen@plt (214,845,618 samples, 0.53%)</title><rect x="1168.8" y="341" width="6.3" height="15.0" fill="rgb(240,162,38)" rx="2" ry="2" />
<text  x="1171.80" y="351.5" ></text>
</g>
<g >
<title>crc32Hash (1,028,646,292 samples, 2.54%)</title><rect x="1049.6" y="341" width="30.0" height="15.0" fill="rgb(239,157,37)" rx="2" ry="2" />
<text  x="1052.65" y="351.5" >cr..</text>
</g>
<g >
<title>_start (40,435,638,891 samples, 99.88%)</title><rect x="10.0" y="453" width="1178.6" height="15.0" fill="rgb(245,185,44)" rx="2" ry="2" />
<text  x="13.00" y="463.5" >_start</text>
</g>
<g >
<title>copy_user_enhanced_fast_string (7,646,730 samples, 0.02%)</title><rect x="1186.7" y="181" width="0.2" height="15.0" fill="rgb(238,155,37)" rx="2" ry="2" />
<text  x="1189.67" y="191.5" ></text>
</g>
<g >
<title>loadFileToBuffer (10,030,356 samples, 0.02%)</title><rect x="1186.7" y="357" width="0.3" height="15.0" fill="rgb(247,193,46)" rx="2" ry="2" />
<text  x="1189.67" y="367.5" ></text>
</g>
<g >
<title>entry_SYSCALL_64_after_hwframe (6,565,309 samples, 0.02%)</title><rect x="22.6" y="341" width="0.2" height="15.0" fill="rgb(218,63,15)" rx="2" ry="2" />
<text  x="25.62" y="351.5" ></text>
</g>
<g >
<title>_mm_movemask_epi8 (2,778,019,998 samples, 6.86%)</title><rect x="794.4" y="341" width="81.0" height="15.0" fill="rgb(247,195,46)" rx="2" ry="2" />
<text  x="797.40" y="351.5" >_mm_movem..</text>
</g>
<g >
<title>all (40,484,760,823 samples, 100%)</title><rect x="10.0" y="485" width="1180.0" height="15.0" fill="rgb(213,39,9)" rx="2" ry="2" />
<text  x="13.00" y="495.5" ></text>
</g>
<g >
<title>clear_page_erms (6,310,898 samples, 0.02%)</title><rect x="886.7" y="229" width="0.2" height="15.0" fill="rgb(229,113,27)" rx="2" ry="2" />
<text  x="889.73" y="239.5" ></text>
</g>
<g >
<title>__x64_sys_munmap (6,565,309 samples, 0.02%)</title><rect x="22.6" y="309" width="0.2" height="15.0" fill="rgb(206,7,1)" rx="2" ry="2" />
<text  x="25.62" y="319.5" ></text>
</g>
<g >
<title>__raw_callee_save___pv_queued_spin_unlock (4,321,973 samples, 0.01%)</title><rect x="902.2" y="133" width="0.1" height="15.0" fill="rgb(248,202,48)" rx="2" ry="2" />
<text  x="905.22" y="143.5" ></text>
</g>
<g >
<title>bucketLookup (35,994,429 samples, 0.09%)</title><rect x="1188.6" y="437" width="1.0" height="15.0" fill="rgb(246,191,45)" rx="2" ry="2" />
<text  x="1191.57" y="447.5" ></text>
</g>
<g >
<title>bucketLookup (29,273,466,122 samples, 72.31%)</title><rect x="22.8" y="373" width="853.2" height="15.0" fill="rgb(246,191,45)" rx="2" ry="2" />
<text  x="25.81" y="383.5" >bucketLookup</text>
</g>
<g >
<title>asm_exc_page_fault (12,557,480 samples, 0.03%)</title><rect x="886.6" y="357" width="0.4" height="15.0" fill="rgb(225,93,22)" rx="2" ry="2" />
<text  x="889.64" y="367.5" ></text>
</g>
<g >
<title>__GI___munmap (6,565,309 samples, 0.02%)</title><rect x="22.6" y="357" width="0.2" height="15.0" fill="rgb(240,161,38)" rx="2" ry="2" />
<text  x="25.62" y="367.5" ></text>
</g>
<g >
<title>__handle_mm_fault (12,582,581 samples, 0.03%)</title><rect x="901.6" y="101" width="0.4" height="15.0" fill="rgb(207,9,2)" rx="2" ry="2" />
<text  x="904.65" y="111.5" ></text>
</g>
<g >
<title>asm_exc_page_fault (12,582,581 samples, 0.03%)</title><rect x="901.6" y="165" width="0.4" height="15.0" fill="rgb(225,93,22)" rx="2" ry="2" />
<text  x="904.65" y="175.5" ></text>
</g>
<g >
<title>__handle_mm_fault (6,218,878 samples, 0.02%)</title><rect x="886.2" y="245" width="0.2" height="15.0" fill="rgb(207,9,2)" rx="2" ry="2" />
<text  x="889.19" y="255.5" ></text>
</g>
<g >
<title>hashtable (40,484,760,822 samples, 100.00%)</title><rect x="10.0" y="469" width="1180.0" height="15.0" fill="rgb(241,166,39)" rx="2" ry="2" />
<text  x="13.00" y="479.5" >hashtable</text>
</g>
<g >
<title>do_huge_pmd_anonymous_page (11,781,075 samples, 0.03%)</title><rect x="901.7" y="85" width="0.3" height="15.0" fill="rgb(242,172,41)" rx="2" ry="2" />
<text  x="904.67" y="95.5" ></text>
</g>
<g >
<title>__vm_munmap (6,565,309 samples, 0.02%)</title><rect x="22.6" y="293" width="0.2" height="15.0" fill="rgb(231,121,28)" rx="2" ry="2" />
<text  x="25.62" y="303.5" ></text>
</g>
<g >
<title>__add_to_page_cache_locked (5,938,485 samples, 0.01%)</title><rect x="902.2" y="149" width="0.1" height="15.0" fill="rgb(254,228,54)" rx="2" ry="2" />
<text  x="905.17" y="159.5" ></text>
</g>
<g >
<title>ext4_mpage_readpages (5,589,085 samples, 0.01%)</title><rect x="902.5" y="149" width="0.2" height="15.0" fill="rgb(228,110,26)" rx="2" ry="2" />
<text  x="905.50" y="159.5" ></text>
</g>
<g >
<title>kernel_init_free_pages.part.0 (6,310,898 samples, 0.02%)</title><rect x="886.7" y="245" width="0.2" height="15.0" fill="rgb(213,40,9)" rx="2" ry="2" />
<text  x="889.73" y="255.5" ></text>
</g>
<g >
<title>mremap_chunk (6,302,081 samples, 0.02%)</title><rect x="886.4" y="341" width="0.2" height="15.0" fill="rgb(233,131,31)" rx="2" ry="2" />
<text  x="889.37" y="351.5" ></text>
</g>
<g >
<title>clear_huge_page (11,032,938 samples, 0.03%)</title><rect x="901.7" y="69" width="0.3" height="15.0" fill="rgb(220,69,16)" rx="2" ry="2" />
<text  x="904.67" y="79.5" ></text>
</g>
<g >
<title>__alloc_pages (6,310,898 samples, 0.02%)</title><rect x="886.7" y="277" width="0.2" height="15.0" fill="rgb(233,129,30)" rx="2" ry="2" />
<text  x="889.73" y="287.5" ></text>
</g>
<g >
<title>bucketLookup (263,422,957 samples, 0.65%)</title><rect x="1176.3" y="373" width="7.7" height="15.0" fill="rgb(246,191,45)" rx="2" ry="2" />
<text  x="1179.28" y="383.5" ></text>
</g>
<g >
<title>__libc_start_call_main (40,435,638,891 samples, 99.88%)</title><rect x="10.0" y="421" width="1178.6" height="15.0" fill="rgb(210,26,6)" rx="2" ry="2" />
<text  x="13.00" y="431.5" >__libc_start_call_main</text>
</g>
<g >
<title>handle_mm_fault (12,582,581 samples, 0.03%)</title><rect x="901.6" y="117" width="0.4" height="15.0" fill="rgb(234,135,32)" rx="2" ry="2" />
<text  x="904.65" y="127.5" ></text>
</g>
<g >
<title>divideBufferToStrings (377,217,920 samples, 0.93%)</title><rect x="876.0" y="373" width="11.0" height="15.0" fill="rgb(232,127,30)" rx="2" ry="2" />
<text  x="879.04" y="383.5" ></text>
</g>
<g >
<title>findWordsInTable (49,121,931 samples, 0.12%)</title><rect x="1188.6" y="453" width="1.4" height="15.0" fill="rgb(230,118,28)" rx="2" ry="2" />
<text  x="1191.57" y="463.5" ></text>
</g>
<g >
<title>__libc_start_main_impl (40,435,638,891 samples, 99.88%)</title><rect x="10.0" y="437" width="1178.6" height="15.0" fill="rgb(218,63,15)" rx="2" ry="2" />
<text  x="13.00" y="447.5" >__libc_start_main_impl</text>
</g>
<g >
<title>__alloc_pages (4,454,894 samples, 0.01%)</title><rect x="902.0" y="165" width="0.2" height="15.0" fill="rgb(233,129,30)" rx="2" ry="2" />
<text  x="905.04" y="175.5" ></text>
</g>
<g >
<title>do_user_addr_fault (9,460,943 samples, 0.02%)</title><rect x="886.7" y="325" width="0.3" height="15.0" fill="rgb(228,108,25)" rx="2" ry="2" />
<text  x="889.73" y="335.5" ></text>
</g>
<g >
<title>loadFileToBuffer (64,760,651 samples, 0.16%)</title><rect x="900.9" y="357" width="1.9" height="15.0" fill="rgb(247,193,46)" rx="2" ry="2" />
<text  x="903.86" y="367.5" ></text>
</g>
<g >
<title>do_syscall_64 (10,030,355 samples, 0.02%)</title><rect x="1186.7" y="277" width="0.3" height="15.0" fill="rgb(209,20,4)" rx="2" ry="2" />
<text  x="1189.67" y="287.5" ></text>
</g>
<g >
<title>__GI___libc_read (64,760,651 samples, 0.16%)</title><rect x="900.9" y="309" width="1.9" height="15.0" fill="rgb(241,166,39)" rx="2" ry="2" />
<text  x="903.86" y="319.5" ></text>
</g>
<g >
<title>tableDtor (6,561,351 samples, 0.02%)</title><rect x="1188.4" y="389" width="0.2" height="15.0" fill="rgb(212,33,8)" rx="2" ry="2" />
<text  x="1191.38" y="399.5" ></text>
</g>
<g >
<title>strncpy@plt (124,022,551 samples, 0.31%)</title><rect x="703.1" y="341" width="3.7" height="15.0" fill="rgb(245,187,44)" rx="2" ry="2" />
<text  x="706.15" y="351.5" ></text>
</g>
<g >
<title>asm_sysvec_hyperv_stimer0 (13,074,543 samples, 0.03%)</title><rect x="605.7" y="357" width="0.3" height="15.0" fill="rgb(225,94,22)" rx="2" ry="2" />
<text  x="608.65" y="367.5" ></text>
</g>
<g >
<title>loadFileToBuffer (65,515,736 samples, 0.16%)</title><rect x="900.8" y="373" width="2.0" height="15.0" fill="rgb(247,193,46)" rx="2" ry="2" />
<text  x="903.84" y="383.5" ></text>
</g>
</g>
</svg>
