<?xml version="1.0" standalone="no"?>
<!DOCTYPE svg PUBLIC "-//W3C//DTD SVG 1.1//EN" "http://www.w3.org/Graphics/SVG/1.1/DTD/svg11.dtd">
<svg version="1.1" width="1200" height="502" onload="init(evt)" viewBox="0 0 1200 502" xmlns="http://www.w3.org/2000/svg" xmlns:xlink="http://www.w3.org/1999/xlink">
<!-- Flame graph stack visualization. See https://github.com/brendangregg/FlameGraph for latest version, and http://www.brendangregg.com/flamegraphs.html for examples. -->
<!-- NOTES:  -->
<defs>
	<linearGradient id="background" y1="0" y2="1" x1="0" x2="0" >
		<stop stop-color="#eeeeee" offset="5%" />
		<stop stop-color="#eeeeb0" offset="95%" />
	</linearGradient>
</defs>
<style type="text/css">
	text { font-family:Verdana; font-size:12px; fill:rgb(0,0,0); }
	#search, #ignorecase { opacity:0.1; cursor:pointer; }
	#search:hover, #search.show, #ignorecase:hover, #ignorecase.show { opacity:1; }
	#subtitle { text-anchor:middle; font-color:rgb(160,160,160); }
	#title { text-anchor:middle; font-size:17px}
	#unzoom { cursor:pointer; }
	#frames > *:hover { stroke:black; stroke-width:0.5; cursor:pointer; }
	.hide { display:none; }
	.parent { opacity:0.5; }
</style>
<script type="text/ecmascript">
<![CDATA[
	"use strict";
	var details, searchbtn, unzoombtn, matchedtxt, svg, searching, currentSearchTerm, ignorecase, ignorecaseBtn;
	function init(evt) {
		details = document.getElementById("details").firstChild;
		searchbtn = document.getElementById("search");
		ignorecaseBtn = document.getElementById("ignorecase");
		unzoombtn = document.getElementById("unzoom");
		matchedtxt = document.getElementById("matched");
		svg = document.getElementsByTagName("svg")[0];
		searching = 0;
		currentSearchTerm = null;

		// use GET parameters to restore a flamegraphs state.
		var params = get_params();
		if (params.x && params.y)
			zoom(find_group(document.querySelector('[x="' + params.x + '"][y="' + params.y + '"]')));
                if (params.s) search(params.s);
	}

	// event listeners
	window.addEventListener("click", function(e) {
		var target = find_group(e.target);
		if (target) {
			if (target.nodeName == "a") {
				if (e.ctrlKey === false) return;
				e.preventDefault();
			}
			if (target.classList.contains("parent")) unzoom(true);
			zoom(target);
			if (!document.querySelector('.parent')) {
				// we have basically done a clearzoom so clear the url
				var params = get_params();
				if (params.x) delete params.x;
				if (params.y) delete params.y;
				history.replaceState(null, null, parse_params(params));
				unzoombtn.classList.add("hide");
				return;
			}

			// set parameters for zoom state
			var el = target.querySelector("rect");
			if (el && el.attributes && el.attributes.y && el.attributes._orig_x) {
				var params = get_params()
				params.x = el.attributes._orig_x.value;
				params.y = el.attributes.y.value;
				history.replaceState(null, null, parse_params(params));
			}
		}
		else if (e.target.id == "unzoom") clearzoom();
		else if (e.target.id == "search") search_prompt();
		else if (e.target.id == "ignorecase") toggle_ignorecase();
	}, false)

	// mouse-over for info
	// show
	window.addEventListener("mouseover", function(e) {
		var target = find_group(e.target);
		if (target) details.nodeValue = "Function: " + g_to_text(target);
	}, false)

	// clear
	window.addEventListener("mouseout", function(e) {
		var target = find_group(e.target);
		if (target) details.nodeValue = ' ';
	}, false)

	// ctrl-F for search
	// ctrl-I to toggle case-sensitive search
	window.addEventListener("keydown",function (e) {
		if (e.keyCode === 114 || (e.ctrlKey && e.keyCode === 70)) {
			e.preventDefault();
			search_prompt();
		}
		else if (e.ctrlKey && e.keyCode === 73) {
			e.preventDefault();
			toggle_ignorecase();
		}
	}, false)

	// functions
	function get_params() {
		var params = {};
		var paramsarr = window.location.search.substr(1).split('&');
		for (var i = 0; i < paramsarr.length; ++i) {
			var tmp = paramsarr[i].split("=");
			if (!tmp[0] || !tmp[1]) continue;
			params[tmp[0]]  = decodeURIComponent(tmp[1]);
		}
		return params;
	}
	function parse_params(params) {
		var uri = "?";
		for (var key in params) {
			uri += key + '=' + encodeURIComponent(params[key]) + '&';
		}
		if (uri.slice(-1) == "&")
			uri = uri.substring(0, uri.length - 1);
		if (uri == '?')
			uri = window.location.href.split('?')[0];
		return uri;
	}
	function find_child(node, selector) {
		var children = node.querySelectorAll(selector);
		if (children.length) return children[0];
	}
	function find_group(node) {
		var parent = node.parentElement;
		if (!parent) return;
		if (parent.id == "frames") return node;
		return find_group(parent);
	}
	function orig_save(e, attr, val) {
		if (e.attributes["_orig_" + attr] != undefined) return;
		if (e.attributes[attr] == undefined) return;
		if (val == undefined) val = e.attributes[attr].value;
		e.setAttribute("_orig_" + attr, val);
	}
	function orig_load(e, attr) {
		if (e.attributes["_orig_"+attr] == undefined) return;
		e.attributes[attr].value = e.attributes["_orig_" + attr].value;
		e.removeAttribute("_orig_"+attr);
	}
	function g_to_text(e) {
		var text = find_child(e, "title").firstChild.nodeValue;
		return (text)
	}
	function g_to_func(e) {
		var func = g_to_text(e);
		// if there's any manipulation we want to do to the function
		// name before it's searched, do it here before returning.
		return (func);
	}
	function update_text(e) {
		var r = find_child(e, "rect");
		var t = find_child(e, "text");
		var w = parseFloat(r.attributes.width.value) -3;
		var txt = find_child(e, "title").textContent.replace(/\([^(]*\)$/,"");
		t.attributes.x.value = parseFloat(r.attributes.x.value) + 3;

		// Smaller than this size won't fit anything
		if (w < 2 * 12 * 0.59) {
			t.textContent = "";
			return;
		}

		t.textContent = txt;
		var sl = t.getSubStringLength(0, txt.length);
		// check if only whitespace or if we can fit the entire string into width w
		if (/^ *$/.test(txt) || sl < w)
			return;

		// this isn't perfect, but gives a good starting point
		// and avoids calling getSubStringLength too often
		var start = Math.floor((w/sl) * txt.length);
		for (var x = start; x > 0; x = x-2) {
			if (t.getSubStringLength(0, x + 2) <= w) {
				t.textContent = txt.substring(0, x) + "..";
				return;
			}
		}
		t.textContent = "";
	}

	// zoom
	function zoom_reset(e) {
		if (e.attributes != undefined) {
			orig_load(e, "x");
			orig_load(e, "width");
		}
		if (e.childNodes == undefined) return;
		for (var i = 0, c = e.childNodes; i < c.length; i++) {
			zoom_reset(c[i]);
		}
	}
	function zoom_child(e, x, ratio) {
		if (e.attributes != undefined) {
			if (e.attributes.x != undefined) {
				orig_save(e, "x");
				e.attributes.x.value = (parseFloat(e.attributes.x.value) - x - 10) * ratio + 10;
				if (e.tagName == "text")
					e.attributes.x.value = find_child(e.parentNode, "rect[x]").attributes.x.value + 3;
			}
			if (e.attributes.width != undefined) {
				orig_save(e, "width");
				e.attributes.width.value = parseFloat(e.attributes.width.value) * ratio;
			}
		}

		if (e.childNodes == undefined) return;
		for (var i = 0, c = e.childNodes; i < c.length; i++) {
			zoom_child(c[i], x - 10, ratio);
		}
	}
	function zoom_parent(e) {
		if (e.attributes) {
			if (e.attributes.x != undefined) {
				orig_save(e, "x");
				e.attributes.x.value = 10;
			}
			if (e.attributes.width != undefined) {
				orig_save(e, "width");
				e.attributes.width.value = parseInt(svg.width.baseVal.value) - (10 * 2);
			}
		}
		if (e.childNodes == undefined) return;
		for (var i = 0, c = e.childNodes; i < c.length; i++) {
			zoom_parent(c[i]);
		}
	}
	function zoom(node) {
		var attr = find_child(node, "rect").attributes;
		var width = parseFloat(attr.width.value);
		var xmin = parseFloat(attr.x.value);
		var xmax = parseFloat(xmin + width);
		var ymin = parseFloat(attr.y.value);
		var ratio = (svg.width.baseVal.value - 2 * 10) / width;

		// XXX: Workaround for JavaScript float issues (fix me)
		var fudge = 0.0001;

		unzoombtn.classList.remove("hide");

		var el = document.getElementById("frames").children;
		for (var i = 0; i < el.length; i++) {
			var e = el[i];
			var a = find_child(e, "rect").attributes;
			var ex = parseFloat(a.x.value);
			var ew = parseFloat(a.width.value);
			var upstack;
			// Is it an ancestor
			if (0 == 0) {
				upstack = parseFloat(a.y.value) > ymin;
			} else {
				upstack = parseFloat(a.y.value) < ymin;
			}
			if (upstack) {
				// Direct ancestor
				if (ex <= xmin && (ex+ew+fudge) >= xmax) {
					e.classList.add("parent");
					zoom_parent(e);
					update_text(e);
				}
				// not in current path
				else
					e.classList.add("hide");
			}
			// Children maybe
			else {
				// no common path
				if (ex < xmin || ex + fudge >= xmax) {
					e.classList.add("hide");
				}
				else {
					zoom_child(e, xmin, ratio);
					update_text(e);
				}
			}
		}
		search();
	}
	function unzoom(dont_update_text) {
		unzoombtn.classList.add("hide");
		var el = document.getElementById("frames").children;
		for(var i = 0; i < el.length; i++) {
			el[i].classList.remove("parent");
			el[i].classList.remove("hide");
			zoom_reset(el[i]);
			if(!dont_update_text) update_text(el[i]);
		}
		search();
	}
	function clearzoom() {
		unzoom();

		// remove zoom state
		var params = get_params();
		if (params.x) delete params.x;
		if (params.y) delete params.y;
		history.replaceState(null, null, parse_params(params));
	}

	// search
	function toggle_ignorecase() {
		ignorecase = !ignorecase;
		if (ignorecase) {
			ignorecaseBtn.classList.add("show");
		} else {
			ignorecaseBtn.classList.remove("show");
		}
		reset_search();
		search();
	}
	function reset_search() {
		var el = document.querySelectorAll("#frames rect");
		for (var i = 0; i < el.length; i++) {
			orig_load(el[i], "fill")
		}
		var params = get_params();
		delete params.s;
		history.replaceState(null, null, parse_params(params));
	}
	function search_prompt() {
		if (!searching) {
			var term = prompt("Enter a search term (regexp " +
			    "allowed, eg: ^ext4_)"
			    + (ignorecase ? ", ignoring case" : "")
			    + "\nPress Ctrl-i to toggle case sensitivity", "");
			if (term != null) search(term);
		} else {
			reset_search();
			searching = 0;
			currentSearchTerm = null;
			searchbtn.classList.remove("show");
			searchbtn.firstChild.nodeValue = "Search"
			matchedtxt.classList.add("hide");
			matchedtxt.firstChild.nodeValue = ""
		}
	}
	function search(term) {
		if (term) currentSearchTerm = term;
		if (currentSearchTerm === null) return;

		var re = new RegExp(currentSearchTerm, ignorecase ? 'i' : '');
		var el = document.getElementById("frames").children;
		var matches = new Object();
		var maxwidth = 0;
		for (var i = 0; i < el.length; i++) {
			var e = el[i];
			var func = g_to_func(e);
			var rect = find_child(e, "rect");
			if (func == null || rect == null)
				continue;

			// Save max width. Only works as we have a root frame
			var w = parseFloat(rect.attributes.width.value);
			if (w > maxwidth)
				maxwidth = w;

			if (func.match(re)) {
				// highlight
				var x = parseFloat(rect.attributes.x.value);
				orig_save(rect, "fill");
				rect.attributes.fill.value = "rgb(230,0,230)";

				// remember matches
				if (matches[x] == undefined) {
					matches[x] = w;
				} else {
					if (w > matches[x]) {
						// overwrite with parent
						matches[x] = w;
					}
				}
				searching = 1;
			}
		}
		if (!searching)
			return;
		var params = get_params();
		params.s = currentSearchTerm;
		history.replaceState(null, null, parse_params(params));

		searchbtn.classList.add("show");
		searchbtn.firstChild.nodeValue = "Reset Search";

		// calculate percent matched, excluding vertical overlap
		var count = 0;
		var lastx = -1;
		var lastw = 0;
		var keys = Array();
		for (k in matches) {
			if (matches.hasOwnProperty(k))
				keys.push(k);
		}
		// sort the matched frames by their x location
		// ascending, then width descending
		keys.sort(function(a, b){
			return a - b;
		});
		// Step through frames saving only the biggest bottom-up frames
		// thanks to the sort order. This relies on the tree property
		// where children are always smaller than their parents.
		var fudge = 0.0001;	// JavaScript floating point
		for (var k in keys) {
			var x = parseFloat(keys[k]);
			var w = matches[keys[k]];
			if (x >= lastx + lastw - fudge) {
				count += w;
				lastx = x;
				lastw = w;
			}
		}
		// display matched percent
		matchedtxt.classList.remove("hide");
		var pct = 100 * count / maxwidth;
		if (pct != 100) pct = pct.toFixed(1)
		matchedtxt.firstChild.nodeValue = "Matched: " + pct + "%";
	}
]]>
</script>
<rect x="0.0" y="0" width="1200.0" height="502.0" fill="url(#background)"  />
<text id="title" x="600.00" y="24" >Flame Graph</text>
<text id="details" x="10.00" y="485" > </text>
<text id="unzoom" x="10.00" y="24" class="hide">Reset Zoom</text>
<text id="search" x="1090.00" y="24" >Search</text>
<text id="ignorecase" x="1174.00" y="24" >ic</text>
<text id="matched" x="1090.00" y="485" > </text>
<g id="frames">
<g >
<title>copy_page_to_iter (34,389,490 samples, 0.04%)</title><rect x="1072.9" y="165" width="0.5" height="15.0" fill="rgb(209,22,5)" rx="2" ry="2" />
<text  x="1075.95" y="175.5" ></text>
</g>
<g >
<title>clear_subpage (12,133,053 samples, 0.01%)</title><rect x="1066.5" y="213" width="0.1" height="15.0" fill="rgb(247,195,46)" rx="2" ry="2" />
<text  x="1069.49" y="223.5" ></text>
</g>
<g >
<title>__vm_munmap (9,876,760 samples, 0.01%)</title><rect x="13.1" y="261" width="0.1" height="15.0" fill="rgb(231,121,28)" rx="2" ry="2" />
<text  x="16.06" y="271.5" ></text>
</g>
<g >
<title>_int_malloc (15,307,898 samples, 0.02%)</title><rect x="1178.9" y="277" width="0.2" height="15.0" fill="rgb(215,47,11)" rx="2" ry="2" />
<text  x="1181.91" y="287.5" ></text>
</g>
<g >
<title>copy_user_enhanced_fast_string (34,389,490 samples, 0.04%)</title><rect x="1072.9" y="149" width="0.5" height="15.0" fill="rgb(238,155,37)" rx="2" ry="2" />
<text  x="1075.95" y="159.5" ></text>
</g>
<g >
<title>__GI__IO_file_xsgetn (36,153,305 samples, 0.04%)</title><rect x="1072.9" y="293" width="0.5" height="15.0" fill="rgb(236,143,34)" rx="2" ry="2" />
<text  x="1075.92" y="303.5" ></text>
</g>
<g >
<title>_mm_cmpeq_epi8 (81,387,514 samples, 0.09%)</title><rect x="1184.3" y="309" width="1.1" height="15.0" fill="rgb(248,200,48)" rx="2" ry="2" />
<text  x="1187.33" y="319.5" ></text>
</g>
<g >
<title>do_syscall_64 (9,876,760 samples, 0.01%)</title><rect x="13.1" y="293" width="0.1" height="15.0" fill="rgb(209,20,4)" rx="2" ry="2" />
<text  x="16.06" y="303.5" ></text>
</g>
<g >
<title>tableLookup (72,558,266 samples, 0.08%)</title><rect x="1187.0" y="341" width="1.0" height="15.0" fill="rgb(208,17,4)" rx="2" ry="2" />
<text  x="1190.05" y="351.5" ></text>
</g>
<g >
<title>entry_SYSCALL_64_after_hwframe (9,876,760 samples, 0.01%)</title><rect x="13.1" y="309" width="0.1" height="15.0" fill="rgb(218,63,15)" rx="2" ry="2" />
<text  x="16.06" y="319.5" ></text>
</g>
<g >
<title>sysvec_hyperv_stimer0 (9,519,502 samples, 0.01%)</title><rect x="975.5" y="277" width="0.1" height="15.0" fill="rgb(212,35,8)" rx="2" ry="2" />
<text  x="978.46" y="287.5" ></text>
</g>
<g >
<title>__GI___libc_free (9,876,760 samples, 0.01%)</title><rect x="13.1" y="341" width="0.1" height="15.0" fill="rgb(252,218,52)" rx="2" ry="2" />
<text  x="16.06" y="351.5" ></text>
</g>
<g >
<title>bucketLookup (2,126,099,123 samples, 2.34%)</title><rect x="781.4" y="325" width="27.6" height="15.0" fill="rgb(246,191,45)" rx="2" ry="2" />
<text  x="784.44" y="335.5" >b..</text>
</g>
<g >
<title>__GI___libc_realloc (9,184,963 samples, 0.01%)</title><rect x="1066.2" y="325" width="0.1" height="15.0" fill="rgb(235,139,33)" rx="2" ry="2" />
<text  x="1069.22" y="335.5" ></text>
</g>
<g >
<title>timekeeping_advance (9,814,206 samples, 0.01%)</title><rect x="780.8" y="197" width="0.1" height="15.0" fill="rgb(227,104,25)" rx="2" ry="2" />
<text  x="783.81" y="207.5" ></text>
</g>
<g >
<title>bucketLookup (71,128,667 samples, 0.08%)</title><rect x="1188.1" y="405" width="0.9" height="15.0" fill="rgb(246,191,45)" rx="2" ry="2" />
<text  x="1191.12" y="415.5" ></text>
</g>
<g >
<title>do_user_addr_fault (19,277,255 samples, 0.02%)</title><rect x="1066.4" y="293" width="0.3" height="15.0" fill="rgb(228,108,25)" rx="2" ry="2" />
<text  x="1069.42" y="303.5" ></text>
</g>
<g >
<title>bucketLookup (27,982,232 samples, 0.03%)</title><rect x="1184.0" y="325" width="0.3" height="15.0" fill="rgb(246,191,45)" rx="2" ry="2" />
<text  x="1186.97" y="335.5" ></text>
</g>
<g >
<title>divideBufferToStrings (37,791,875 samples, 0.04%)</title><rect x="1185.9" y="341" width="0.5" height="15.0" fill="rgb(232,127,30)" rx="2" ry="2" />
<text  x="1188.88" y="351.5" ></text>
</g>
<g >
<title>crc32Hash (37,046,250 samples, 0.04%)</title><rect x="1187.5" y="309" width="0.5" height="15.0" fill="rgb(239,157,37)" rx="2" ry="2" />
<text  x="1190.51" y="319.5" ></text>
</g>
<g >
<title>entry_SYSCALL_64_after_hwframe (35,277,149 samples, 0.04%)</title><rect x="1072.9" y="261" width="0.5" height="15.0" fill="rgb(218,63,15)" rx="2" ry="2" />
<text  x="1075.93" y="271.5" ></text>
</g>
<g >
<title>bucketLookup (80,832,290,103 samples, 88.84%)</title><rect x="13.2" y="341" width="1048.3" height="15.0" fill="rgb(246,191,45)" rx="2" ry="2" />
<text  x="16.18" y="351.5" >bucketLookup</text>
</g>
<g >
<title>getBucketIndex (1,289,979,615 samples, 1.42%)</title><rect x="1125.2" y="325" width="16.7" height="15.0" fill="rgb(225,96,22)" rx="2" ry="2" />
<text  x="1128.22" y="335.5" ></text>
</g>
<g >
<title>filemap_read (35,277,149 samples, 0.04%)</title><rect x="1072.9" y="181" width="0.5" height="15.0" fill="rgb(246,192,46)" rx="2" ry="2" />
<text  x="1075.93" y="191.5" ></text>
</g>
<g >
<title>bucketPush (18,496,125 samples, 0.02%)</title><rect x="1178.9" y="325" width="0.3" height="15.0" fill="rgb(254,229,54)" rx="2" ry="2" />
<text  x="1181.91" y="335.5" ></text>
</g>
<g >
<title>tick_sched_timer (26,065,034 samples, 0.03%)</title><rect x="780.7" y="245" width="0.4" height="15.0" fill="rgb(254,227,54)" rx="2" ry="2" />
<text  x="783.73" y="255.5" ></text>
</g>
<g >
<title>bucketInsert (21,604,955 samples, 0.02%)</title><rect x="1178.9" y="341" width="0.3" height="15.0" fill="rgb(228,109,26)" rx="2" ry="2" />
<text  x="1181.87" y="351.5" ></text>
</g>
<g >
<title>ksys_read (35,277,149 samples, 0.04%)</title><rect x="1072.9" y="229" width="0.5" height="15.0" fill="rgb(229,113,27)" rx="2" ry="2" />
<text  x="1075.93" y="239.5" ></text>
</g>
<g >
<title>all (90,985,530,670 samples, 100%)</title><rect x="10.0" y="453" width="1180.0" height="15.0" fill="rgb(213,39,9)" rx="2" ry="2" />
<text  x="13.00" y="463.5" ></text>
</g>
<g >
<title>do_user_addr_fault (12,161,710 samples, 0.01%)</title><rect x="1073.2" y="101" width="0.2" height="15.0" fill="rgb(228,108,25)" rx="2" ry="2" />
<text  x="1076.23" y="111.5" ></text>
</g>
<g >
<title>update_process_times (9,781,152 samples, 0.01%)</title><rect x="780.9" y="229" width="0.2" height="15.0" fill="rgb(250,209,50)" rx="2" ry="2" />
<text  x="783.94" y="239.5" ></text>
</g>
<g >
<title>loadWordsIntoTable (45,811,818 samples, 0.05%)</title><rect x="1186.4" y="341" width="0.6" height="15.0" fill="rgb(220,73,17)" rx="2" ry="2" />
<text  x="1189.37" y="351.5" ></text>
</g>
<g >
<title>__GI___munmap (9,876,760 samples, 0.01%)</title><rect x="13.1" y="325" width="0.1" height="15.0" fill="rgb(240,161,38)" rx="2" ry="2" />
<text  x="16.06" y="335.5" ></text>
</g>
<g >
<title>strcmp_optimized (116,383,736 samples, 0.13%)</title><rect x="1184.3" y="325" width="1.5" height="15.0" fill="rgb(216,54,13)" rx="2" ry="2" />
<text  x="1187.33" y="335.5" ></text>
</g>
<g >
<title>strcmp_optimized (19,452,360,441 samples, 21.38%)</title><rect x="809.1" y="325" width="252.2" height="15.0" fill="rgb(216,54,13)" rx="2" ry="2" />
<text  x="812.06" y="335.5" >strcmp_optimized</text>
</g>
<g >
<title>__libc_start_main_impl (90,833,817,869 samples, 99.83%)</title><rect x="10.0" y="405" width="1178.1" height="15.0" fill="rgb(218,63,15)" rx="2" ry="2" />
<text  x="13.04" y="415.5" >__libc_start_main_impl</text>
</g>
<g >
<title>clear_page_erms (12,133,053 samples, 0.01%)</title><rect x="1066.5" y="197" width="0.1" height="15.0" fill="rgb(229,113,27)" rx="2" ry="2" />
<text  x="1069.49" y="207.5" ></text>
</g>
<g >
<title>strlen@plt (113,421,420 samples, 0.12%)</title><rect x="1140.5" y="309" width="1.4" height="15.0" fill="rgb(240,162,38)" rx="2" ry="2" />
<text  x="1143.48" y="319.5" ></text>
</g>
<g >
<title>hrtimer_interrupt (9,519,502 samples, 0.01%)</title><rect x="975.5" y="245" width="0.1" height="15.0" fill="rgb(228,109,26)" rx="2" ry="2" />
<text  x="978.46" y="255.5" ></text>
</g>
<g >
<title>tableLookup (37,046,250 samples, 0.04%)</title><rect x="1187.5" y="325" width="0.5" height="15.0" fill="rgb(208,17,4)" rx="2" ry="2" />
<text  x="1190.51" y="335.5" ></text>
</g>
<g >
<title>handle_mm_fault (19,277,255 samples, 0.02%)</title><rect x="1066.4" y="277" width="0.3" height="15.0" fill="rgb(234,135,32)" rx="2" ry="2" />
<text  x="1069.42" y="287.5" ></text>
</g>
<g >
<title>divideBufferToStrings (401,191,486 samples, 0.44%)</title><rect x="1061.5" y="341" width="5.2" height="15.0" fill="rgb(232,127,30)" rx="2" ry="2" />
<text  x="1064.51" y="351.5" ></text>
</g>
<g >
<title>clear_huge_page (9,393,090 samples, 0.01%)</title><rect x="1073.3" y="37" width="0.1" height="15.0" fill="rgb(220,69,16)" rx="2" ry="2" />
<text  x="1076.27" y="47.5" ></text>
</g>
<g >
<title>__libc_start_call_main (90,833,817,869 samples, 99.83%)</title><rect x="10.0" y="389" width="1178.1" height="15.0" fill="rgb(210,26,6)" rx="2" ry="2" />
<text  x="13.04" y="399.5" >__libc_start_call_main</text>
</g>
<g >
<title>asm_exc_page_fault (12,161,710 samples, 0.01%)</title><rect x="1073.2" y="133" width="0.2" height="15.0" fill="rgb(225,93,22)" rx="2" ry="2" />
<text  x="1076.23" y="143.5" ></text>
</g>
<g >
<title>tick_sched_do_timer (13,113,172 samples, 0.01%)</title><rect x="780.8" y="229" width="0.1" height="15.0" fill="rgb(227,104,25)" rx="2" ry="2" />
<text  x="783.77" y="239.5" ></text>
</g>
<g >
<title>exc_page_fault (19,277,255 samples, 0.02%)</title><rect x="1066.4" y="309" width="0.3" height="15.0" fill="rgb(212,35,8)" rx="2" ry="2" />
<text  x="1069.42" y="319.5" ></text>
</g>
<g >
<title>isalpha@plt (34,442,621 samples, 0.04%)</title><rect x="1072.5" y="325" width="0.4" height="15.0" fill="rgb(212,33,7)" rx="2" ry="2" />
<text  x="1075.48" y="335.5" ></text>
</g>
<g >
<title>tableLookup (2,831,892,056 samples, 3.11%)</title><rect x="1141.9" y="325" width="36.8" height="15.0" fill="rgb(208,17,4)" rx="2" ry="2" />
<text  x="1144.95" y="335.5" >tab..</text>
</g>
<g >
<title>hrtimer_interrupt (39,021,653 samples, 0.04%)</title><rect x="780.7" y="277" width="0.5" height="15.0" fill="rgb(228,109,26)" rx="2" ry="2" />
<text  x="783.69" y="287.5" ></text>
</g>
<g >
<title>asm_exc_page_fault (19,277,255 samples, 0.02%)</title><rect x="1066.4" y="325" width="0.3" height="15.0" fill="rgb(225,93,22)" rx="2" ry="2" />
<text  x="1069.42" y="335.5" ></text>
</g>
<g >
<title>new_sync_read (35,277,149 samples, 0.04%)</title><rect x="1072.9" y="197" width="0.5" height="15.0" fill="rgb(218,61,14)" rx="2" ry="2" />
<text  x="1075.93" y="207.5" ></text>
</g>
<g >
<title>asm_sysvec_hyperv_stimer0 (9,818,807 samples, 0.01%)</title><rect x="1061.1" y="293" width="0.2" height="15.0" fill="rgb(225,94,22)" rx="2" ry="2" />
<text  x="1064.12" y="303.5" ></text>
</g>
<g >
<title>__handle_mm_fault (12,161,710 samples, 0.01%)</title><rect x="1073.2" y="69" width="0.2" height="15.0" fill="rgb(207,9,2)" rx="2" ry="2" />
<text  x="1076.23" y="79.5" ></text>
</g>
<g >
<title>_mm_cmpeq_epi8 (12,843,476,650 samples, 14.12%)</title><rect x="809.1" y="309" width="166.5" height="15.0" fill="rgb(248,200,48)" rx="2" ry="2" />
<text  x="812.06" y="319.5" >_mm_cmpeq_epi8</text>
</g>
<g >
<title>timekeeping_update (9,814,206 samples, 0.01%)</title><rect x="780.8" y="181" width="0.1" height="15.0" fill="rgb(238,152,36)" rx="2" ry="2" />
<text  x="783.81" y="191.5" ></text>
</g>
<g >
<title>bucketInsert (15,307,898 samples, 0.02%)</title><rect x="1178.9" y="309" width="0.2" height="15.0" fill="rgb(228,109,26)" rx="2" ry="2" />
<text  x="1181.91" y="319.5" ></text>
</g>
<g >
<title>unmap_vmas (9,876,760 samples, 0.01%)</title><rect x="13.1" y="213" width="0.1" height="15.0" fill="rgb(243,176,42)" rx="2" ry="2" />
<text  x="16.06" y="223.5" ></text>
</g>
<g >
<title>__hrtimer_run_queues (29,253,438 samples, 0.03%)</title><rect x="780.7" y="261" width="0.4" height="15.0" fill="rgb(237,150,35)" rx="2" ry="2" />
<text  x="783.69" y="271.5" ></text>
</g>
<g >
<title>__strlen_avx2 (904,738,327 samples, 0.99%)</title><rect x="1128.7" y="309" width="11.8" height="15.0" fill="rgb(246,188,45)" rx="2" ry="2" />
<text  x="1131.74" y="319.5" ></text>
</g>
<g >
<title>tableLookup (71,467,644 samples, 0.08%)</title><rect x="1189.0" y="405" width="1.0" height="15.0" fill="rgb(208,17,4)" rx="2" ry="2" />
<text  x="1192.04" y="415.5" ></text>
</g>
<g >
<title>__sysvec_hyperv_stimer0 (55,156,742 samples, 0.06%)</title><rect x="780.7" y="293" width="0.7" height="15.0" fill="rgb(235,139,33)" rx="2" ry="2" />
<text  x="783.69" y="303.5" ></text>
</g>
<g >
<title>__GI___libc_read (35,277,149 samples, 0.04%)</title><rect x="1072.9" y="277" width="0.5" height="15.0" fill="rgb(241,166,39)" rx="2" ry="2" />
<text  x="1075.93" y="287.5" ></text>
</g>
<g >
<title>asm_sysvec_hyperv_stimer0 (9,519,502 samples, 0.01%)</title><rect x="975.5" y="293" width="0.1" height="15.0" fill="rgb(225,94,22)" rx="2" ry="2" />
<text  x="978.46" y="303.5" ></text>
</g>
<g >
<title>findWordsInTable (142,596,311 samples, 0.16%)</title><rect x="1188.1" y="421" width="1.9" height="15.0" fill="rgb(230,118,28)" rx="2" ry="2" />
<text  x="1191.12" y="431.5" ></text>
</g>
<g >
<title>unmap_page_range (9,876,760 samples, 0.01%)</title><rect x="13.1" y="197" width="0.1" height="15.0" fill="rgb(206,5,1)" rx="2" ry="2" />
<text  x="16.06" y="207.5" ></text>
</g>
<g >
<title>crc32Hash (2,831,892,056 samples, 3.11%)</title><rect x="1141.9" y="309" width="36.8" height="15.0" fill="rgb(239,157,37)" rx="2" ry="2" />
<text  x="1144.95" y="319.5" >crc..</text>
</g>
<g >
<title>__libc_calloc (15,307,898 samples, 0.02%)</title><rect x="1178.9" y="293" width="0.2" height="15.0" fill="rgb(205,4,0)" rx="2" ry="2" />
<text  x="1181.91" y="303.5" ></text>
</g>
<g >
<title>findWordsInTable (479,118,643 samples, 0.53%)</title><rect x="1066.7" y="341" width="6.2" height="15.0" fill="rgb(230,118,28)" rx="2" ry="2" />
<text  x="1069.71" y="351.5" ></text>
</g>
<g >
<title>do_syscall_64 (35,277,149 samples, 0.04%)</title><rect x="1072.9" y="245" width="0.5" height="15.0" fill="rgb(209,20,4)" rx="2" ry="2" />
<text  x="1075.93" y="255.5" ></text>
</g>
<g >
<title>_mm_movemask_epi8 (34,996,222 samples, 0.04%)</title><rect x="1185.4" y="309" width="0.4" height="15.0" fill="rgb(247,195,46)" rx="2" ry="2" />
<text  x="1188.39" y="319.5" ></text>
</g>
<g >
<title>main (90,833,817,869 samples, 99.83%)</title><rect x="10.0" y="373" width="1178.1" height="15.0" fill="rgb(243,179,42)" rx="2" ry="2" />
<text  x="13.04" y="383.5" >main</text>
</g>
<g >
<title>__GI__IO_fread (36,153,305 samples, 0.04%)</title><rect x="1072.9" y="309" width="0.5" height="15.0" fill="rgb(212,34,8)" rx="2" ry="2" />
<text  x="1075.92" y="319.5" ></text>
</g>
<g >
<title>loadFileToBuffer (36,153,305 samples, 0.04%)</title><rect x="1072.9" y="325" width="0.5" height="15.0" fill="rgb(247,193,46)" rx="2" ry="2" />
<text  x="1075.92" y="335.5" ></text>
</g>
<g >
<title>__strncpy_avx2 (27,982,232 samples, 0.03%)</title><rect x="1184.0" y="309" width="0.3" height="15.0" fill="rgb(251,213,51)" rx="2" ry="2" />
<text  x="1186.97" y="319.5" ></text>
</g>
<g >
<title>findWordsInTable (90,109,091,443 samples, 99.04%)</title><rect x="10.0" y="357" width="1168.7" height="15.0" fill="rgb(230,118,28)" rx="2" ry="2" />
<text  x="13.04" y="367.5" >findWordsInTable</text>
</g>
<g >
<title>do_huge_pmd_anonymous_page (9,393,090 samples, 0.01%)</title><rect x="1073.3" y="53" width="0.1" height="15.0" fill="rgb(242,172,41)" rx="2" ry="2" />
<text  x="1076.27" y="63.5" ></text>
</g>
<g >
<title>__handle_mm_fault (19,277,255 samples, 0.02%)</title><rect x="1066.4" y="261" width="0.3" height="15.0" fill="rgb(207,9,2)" rx="2" ry="2" />
<text  x="1069.42" y="271.5" ></text>
</g>
<g >
<title>update_wall_time (9,814,206 samples, 0.01%)</title><rect x="780.8" y="213" width="0.1" height="15.0" fill="rgb(207,11,2)" rx="2" ry="2" />
<text  x="783.81" y="223.5" ></text>
</g>
<g >
<title>isalpha (444,676,022 samples, 0.49%)</title><rect x="1066.7" y="325" width="5.8" height="15.0" fill="rgb(246,189,45)" rx="2" ry="2" />
<text  x="1069.71" y="335.5" ></text>
</g>
<g >
<title>_start (90,833,817,869 samples, 99.83%)</title><rect x="10.0" y="421" width="1178.1" height="15.0" fill="rgb(245,185,44)" rx="2" ry="2" />
<text  x="13.04" y="431.5" >_start</text>
</g>
<g >
<title>unmap_region (9,876,760 samples, 0.01%)</title><rect x="13.1" y="229" width="0.1" height="15.0" fill="rgb(219,64,15)" rx="2" ry="2" />
<text  x="16.06" y="239.5" ></text>
</g>
<g >
<title>asm_sysvec_hyperv_stimer0 (61,505,314 samples, 0.07%)</title><rect x="780.6" y="325" width="0.8" height="15.0" fill="rgb(225,94,22)" rx="2" ry="2" />
<text  x="783.64" y="335.5" ></text>
</g>
<g >
<title>handle_mm_fault (12,161,710 samples, 0.01%)</title><rect x="1073.2" y="85" width="0.2" height="15.0" fill="rgb(234,135,32)" rx="2" ry="2" />
<text  x="1076.23" y="95.5" ></text>
</g>
<g >
<title>do_huge_pmd_anonymous_page (15,255,212 samples, 0.02%)</title><rect x="1066.4" y="245" width="0.2" height="15.0" fill="rgb(242,172,41)" rx="2" ry="2" />
<text  x="1069.45" y="255.5" ></text>
</g>
<g >
<title>bucketLookup (518,784,599 samples, 0.57%)</title><rect x="1179.2" y="341" width="6.7" height="15.0" fill="rgb(246,191,45)" rx="2" ry="2" />
<text  x="1182.15" y="351.5" ></text>
</g>
<g >
<title>__sysvec_hyperv_stimer0 (9,519,502 samples, 0.01%)</title><rect x="975.5" y="261" width="0.1" height="15.0" fill="rgb(235,139,33)" rx="2" ry="2" />
<text  x="978.46" y="271.5" ></text>
</g>
<g >
<title>loadFileToBuffer (36,153,305 samples, 0.04%)</title><rect x="1072.9" y="341" width="0.5" height="15.0" fill="rgb(247,193,46)" rx="2" ry="2" />
<text  x="1075.92" y="351.5" ></text>
</g>
<g >
<title>hashtable (90,985,530,669 samples, 100.00%)</title><rect x="10.0" y="437" width="1180.0" height="15.0" fill="rgb(241,166,39)" rx="2" ry="2" />
<text  x="13.00" y="447.5" >hashtable</text>
</g>
<g >
<title>exc_page_fault (12,161,710 samples, 0.01%)</title><rect x="1073.2" y="117" width="0.2" height="15.0" fill="rgb(212,35,8)" rx="2" ry="2" />
<text  x="1076.23" y="127.5" ></text>
</g>
<g >
<title>__strlen_avx2 (431,968,961 samples, 0.47%)</title><rect x="775.0" y="325" width="5.6" height="15.0" fill="rgb(246,188,45)" rx="2" ry="2" />
<text  x="778.04" y="335.5" ></text>
</g>
<g >
<title>__x64_sys_munmap (9,876,760 samples, 0.01%)</title><rect x="13.1" y="277" width="0.1" height="15.0" fill="rgb(206,7,1)" rx="2" ry="2" />
<text  x="16.06" y="287.5" ></text>
</g>
<g >
<title>vfs_read (35,277,149 samples, 0.04%)</title><rect x="1072.9" y="213" width="0.5" height="15.0" fill="rgb(224,88,21)" rx="2" ry="2" />
<text  x="1075.93" y="223.5" ></text>
</g>
<g >
<title>sysvec_hyperv_stimer0 (9,818,807 samples, 0.01%)</title><rect x="1061.1" y="277" width="0.2" height="15.0" fill="rgb(212,35,8)" rx="2" ry="2" />
<text  x="1064.12" y="287.5" ></text>
</g>
<g >
<title>strncpy@plt (58,550,982 samples, 0.06%)</title><rect x="808.3" y="309" width="0.7" height="15.0" fill="rgb(245,187,44)" rx="2" ry="2" />
<text  x="811.26" y="319.5" ></text>
</g>
<g >
<title>tableLookup (8,118,145,805 samples, 8.92%)</title><rect x="1073.4" y="341" width="105.3" height="15.0" fill="rgb(208,17,4)" rx="2" ry="2" />
<text  x="1076.39" y="351.5" >tableLookup</text>
</g>
<g >
<title>_mm_movemask_epi8 (6,608,883,791 samples, 7.26%)</title><rect x="975.6" y="309" width="85.7" height="15.0" fill="rgb(247,195,46)" rx="2" ry="2" />
<text  x="978.63" y="319.5" >_mm_movema..</text>
</g>
<g >
<title>clear_huge_page (12,133,053 samples, 0.01%)</title><rect x="1066.5" y="229" width="0.1" height="15.0" fill="rgb(220,69,16)" rx="2" ry="2" />
<text  x="1069.49" y="239.5" ></text>
</g>
<g >
<title>isalpha (42,679,038 samples, 0.05%)</title><rect x="1186.4" y="325" width="0.5" height="15.0" fill="rgb(246,189,45)" rx="2" ry="2" />
<text  x="1189.37" y="335.5" ></text>
</g>
<g >
<title>loadWordsIntoTable (718,184,465 samples, 0.79%)</title><rect x="1178.7" y="357" width="9.3" height="15.0" fill="rgb(220,73,17)" rx="2" ry="2" />
<text  x="1181.68" y="367.5" ></text>
</g>
<g >
<title>__strncpy_avx2 (2,067,548,141 samples, 2.27%)</title><rect x="781.4" y="309" width="26.9" height="15.0" fill="rgb(251,213,51)" rx="2" ry="2" />
<text  x="784.44" y="319.5" >_..</text>
</g>
<g >
<title>__do_munmap (9,876,760 samples, 0.01%)</title><rect x="13.1" y="245" width="0.1" height="15.0" fill="rgb(234,136,32)" rx="2" ry="2" />
<text  x="16.06" y="255.5" ></text>
</g>
<g >
<title>sysvec_hyperv_stimer0 (58,197,293 samples, 0.06%)</title><rect x="780.7" y="309" width="0.7" height="15.0" fill="rgb(212,35,8)" rx="2" ry="2" />
<text  x="783.69" y="319.5" ></text>
</g>
<g >
<title>hv_apic_eoi_write (9,577,207 samples, 0.01%)</title><rect x="781.2" y="277" width="0.1" height="15.0" fill="rgb(237,149,35)" rx="2" ry="2" />
<text  x="784.19" y="287.5" ></text>
</g>
</g>
</svg>
